{"title":"The.Lincoln.Lawyer.2011.R5.LINE.x264.Feel-Free","uid":6350602,"size":1366062372,"categoryP":"video","categoryS":"movies","magnet":"?xt=urn:btih:571609abc17dd34b033017d6df7264e89d864589&amp;dn=The.Lincoln.Lawyer.2011.R5.LINE.x264.Feel-Free&amp;tr=udp%3A%2F%2Ftracker.openbittorrent.com%3A80&amp;tr=udp%3A%2F%2Fopen.demonii.com%3A1337&amp;tr=udp%3A%2F%2Ftracker.coppersurfer.tk%3A6969&amp;tr=udp%3A%2F%2Fexodus.desync.com%3A6969","seeders":0,"leechers":1,"uploader":"qwersd","files":-1,"time":1303987756,"description":"Genre:Crime | Drama | Thriller\nLanguage:English\nIMDb:http://www.imdb.com/title/tt1189340/\nSource:DVD9/Imagine&amp;Hive-CM8 Thanks!\n\n\nFormat : MPEG-4\nFormat profile : Base Media\nCodec ID : isom\nFile size : 1.27 GiB\nDuration : 1h 53mn\nOverall bit rate : 1 602 Kbps\n\n\nVideo\nFormat profile : &lt;a class=&quot;__cf_email__&quot; href=&quot;/cdn-cgi/l/email-protection&quot; data-cfemail=&quot;6e260709062e225a405f&quot;&gt;[email&amp;#160;protected]&lt;/a&gt;&lt;script cf-hash='f9e31' type=&quot;text/javascript&quot;&gt;\n/* &lt;![CDATA[ */!function(){try{var t=&quot;currentScript&quot;in document?document.currentScript:function(){for(var t=document.getElementsByTagName(&quot;script&quot;),e=t.length;e--;)if(t[e].getAttribute(&quot;cf-hash&quot;))return t[e]}();if(t&amp;&amp;t.previousSibling){var e,r,n,i,c=t.previousSibling,a=c.getAttribute(&quot;data-cfemail&quot;);if(a){for(e=&quot;&quot;,r=parseInt(a.substr(0,2),16),n=2;a.length-n;n+=2)i=parseInt(a.substr(n,2),16)^r,e+=String.fromCharCode(i);e=document.createTextNode(e),c.parentNode.replaceChild(e,c)}}}catch(u){}}();/* ]]&gt; */&lt;/script&gt;\nFormat settings, CABAC : Yes\nFormat settings, ReFrames : 3 frames\nCodec ID : avc1\nCodec ID/Info : Advanced Video Coding\nDuration : 1h 53mn\nBit rate mode : Variable\nBit rate : 1 200 Kbps\nMaximum bit rate : 6 183 Kbps\nWidth : 720 pixels\nHeight : 304 pixels\nDisplay aspect ratio : 2.35:1\nFrame rate mode : Constant\nFrame rate : 25.000 fps\nColor space : YUV\nChroma subsampling : 4:2:0\nBit depth : 8 bits\nScan type : Progressive\nBits/(Pixel*Frame) : 0.219\nStream size : 976 MiB (75%)\nWriting library : x264\n\n\nAudio\nID : 2\nFormat : AAC\nFormat/Info : Advanced Audio Codec\nFormat version : Version 4\nFormat profile : LC\nFormat settings, SBR : No\nCodec ID : 40\nDuration : 1h 53mn\nBit rate mode : Variable\nBit rate : 396 Kbps\nMaximum bit rate : 499 Kbps\nChannel(s) : 6 channels\nChannel positions : Front: L C R, Side: L R, LFE\nSampling rate : 48.0 KHz\nStream size : 322 MiB (25%)\n\n\nPlot:\nA lawyer conducts business from the back of his Lincoln town car while representing a high-profile client in Beverly Hills.\n\nScreens:\n &lt;a href=&quot;\nhttp://www.pix2links.com/images/99498125695759681429.png&quot; rel=&quot;nofollow&quot; target=&quot;_NEW&quot;&gt;\nhttp://www.pix2links.com/images/99498125695759681429.png&lt;/a&gt; &lt;a href=&quot;\nhttp://www.pix2links.com/images/32823153845344836075.png&quot; rel=&quot;nofollow&quot; target=&quot;_NEW&quot;&gt;\nhttp://www.pix2links.com/images/32823153845344836075.png&lt;/a&gt; &lt;a href=&quot;\nhttp://www.pix2links.com/images/20269290419103613291.png&quot; rel=&quot;nofollow&quot; target=&quot;_NEW&quot;&gt;\nhttp://www.pix2links.com/images/20269290419103613291.png&lt;/a&gt; &lt;a href=&quot;\nhttp://www.pix2links.com/images/34329461811824165651.png&quot; rel=&quot;nofollow&quot; target=&quot;_NEW&quot;&gt;\nhttp://www.pix2links.com/images/34329461811824165651.png&lt;/a&gt; &lt;a href=&quot;\nhttp://www.pix2links.com/images/26970096396905776423.png&quot; rel=&quot;nofollow&quot; target=&quot;_NEW&quot;&gt;\nhttp://www.pix2links.com/images/26970096396905776423.png&lt;/a&gt;\n\nGreets:\n\nINK,CRYS,IMAGINE,LKRG,FXG,3Li,FLAWL3SS,TA,iLLUSiON,ViSiON,DTRG SAFCuk009,LU,TheFalcon007,MYSTiC,PrisM,Noir,WBZ,LAP,Rx,Kingdom,SAFCuk009+Fabreezy,HDLiTE,TWiZTED,ExtraTorrentRG.ELEKTRI4KA,MAGNAT,CM8\nAnd to all the other p2p grps past and present.","torrent":{"xt":"urn:btih:571609abc17dd34b033017d6df7264e89d864589","amp;dn":"The.Lincoln.Lawyer.2011.R5.LINE.x264.Feel-Free","amp;tr":["udp%3A%2F%2Ftracker.openbittorrent.com%3A80","udp%3A%2F%2Fopen.demonii.com%3A1337","udp%3A%2F%2Ftracker.coppersurfer.tk%3A6969","udp%3A%2F%2Fexodus.desync.com%3A6969"],"infoHash":"571609abc17dd34b033017d6df7264e89d864589","infoHashBuffer":{"type":"Buffer","data":[87,22,9,171,193,125,211,75,3,48,23,214,223,114,100,232,157,134,69,137]},"announce":[],"urlList":[]}}